<?xml version="1.0" standalone="no"?>
<!DOCTYPE svg PUBLIC "-//W3C//DTD SVG 20010904//EN"
 "http://www.w3.org/TR/2001/REC-SVG-20010904/DTD/svg10.dtd">
<svg version="1.0" xmlns="http://www.w3.org/2000/svg"
 width="500.000000pt" height="500.000000pt" viewBox="0 0 500.000000 500.000000"
 preserveAspectRatio="xMidYMid meet">
<metadata>
Created by potrace 1.14, written by Peter Selinger 2001-2017
</metadata>
<g transform="translate(0.000000,500.000000) scale(0.100000,-0.100000)"
fill="#000000" stroke="none">
<path d="M0 2500 l0 -2500 2500 0 2500 0 0 2500 0 2500 -2500 0 -2500 0 0
-2500z m1703 2463 c-7 -3 -13 -17 -12 -31 l1 -27 8 25 c7 21 8 18 9 -18 1 -48
-14 -49 -24 -2 -4 17 -12 30 -18 30 -7 1 -1 10 12 21 13 11 27 17 30 13 3 -4
0 -9 -6 -11z m1610 -13 c19 -17 65 -85 102 -152 37 -68 95 -167 130 -220 l64
-96 -25 -89 c-13 -48 -35 -140 -49 -203 -18 -86 -62 -212 -173 -500 -82 -212
-152 -394 -157 -405 -6 -16 -11 -5 -22 45 -17 81 -58 212 -84 266 -10 22 -19
46 -19 52 0 7 -5 12 -11 12 -5 0 -8 4 -4 9 3 5 1 12 -5 16 -5 3 -10 19 -10 35
0 30 -62 114 -75 102 -5 -4 -5 -1 0 7 5 8 -1 21 -17 35 -13 11 -17 17 -9 11
10 -7 10 -2 -3 18 -17 25 -35 40 -20 15 5 -7 3 -8 -5 -4 -7 5 -10 14 -7 22 3
8 -1 14 -8 14 -7 0 -20 8 -27 18 -13 16 -13 16 6 2 17 -13 16 -11 -3 17 -13
18 -28 36 -35 39 -7 4 -3 -2 7 -14 36 -41 10 -22 -34 25 -25 26 -31 36 -15 23
l30 -25 -25 28 c-13 15 -30 25 -36 23 -7 -3 -18 2 -25 10 -18 21 -84 54 -109
54 -12 0 -19 4 -15 9 8 14 64 -7 110 -42 l40 -30 -34 36 c-19 21 -40 37 -47
37 -6 0 -14 7 -18 15 -3 8 -1 15 4 15 6 0 10 -6 10 -12 0 -7 9 2 20 20 11 18
37 47 58 65 20 17 60 54 89 82 28 27 70 65 93 84 51 43 168 163 210 216 18 22
61 83 95 136 35 53 68 100 74 103 6 4 11 17 10 29 0 21 -1 21 -9 2 -8 -18 -9
-18 -9 6 -2 45 -15 42 -37 -8 l-22 -48 -1 40 c0 25 2 35 8 27 7 -11 9 -11 14
2 4 9 -1 17 -14 21 -22 7 -26 35 -4 35 8 0 30 -13 48 -30z m-1665 -37 c-1 -10
1 -24 5 -30 5 -8 4 -13 -2 -13 -6 0 -11 5 -11 12 0 6 -3 8 -6 5 -9 -9 16 -38
27 -31 5 3 8 2 7 -3 -2 -5 7 -22 20 -38 13 -17 50 -68 82 -115 62 -88 211
-249 290 -312 68 -55 196 -180 208 -204 9 -18 7 -25 -18 -49 -17 -16 -30 -34
-30 -41 0 -7 -5 -16 -12 -20 -7 -4 -8 -3 -4 4 13 21 0 13 -30 -20 -16 -18 -21
-26 -11 -19 32 25 17 5 -30 -39 -37 -35 -41 -37 -18 -10 l30 35 -37 -34 c-22
-20 -34 -38 -27 -41 6 -4 3 -12 -7 -21 -16 -12 -17 -12 -10 1 4 8 -1 4 -12
-10 -11 -13 -20 -27 -20 -30 1 -19 -3 -32 -9 -26 -4 3 -15 -8 -24 -26 -9 -18
-41 -80 -71 -138 -60 -116 -110 -250 -129 -350 -7 -36 -15 -68 -18 -72 -4 -4
-72 165 -153 375 -126 327 -152 403 -178 527 -16 80 -39 176 -50 215 -11 38
-20 75 -20 81 0 6 30 57 67 115 37 57 88 142 113 189 52 96 84 150 88 150 2 0
2 -8 0 -17z m1187 -591 c-6 -4 -32 -26 -60 -47 -27 -22 -54 -45 -58 -52 -4 -7
-17 -13 -28 -13 -11 0 -18 -4 -15 -9 3 -5 -8 -11 -25 -15 -17 -3 -28 -10 -24
-16 3 -5 -5 -12 -19 -16 -47 -11 -46 1 1 26 45 23 148 90 202 132 23 17 45 26
26 10z m-535 -105 c24 -19 24 -19 3 -13 -13 4 -23 3 -23 -2 0 -16 12 -21 34
-12 16 6 33 2 61 -16 36 -21 37 -24 15 -23 -14 0 -35 -2 -47 -6 -18 -6 -21 -4
-16 14 4 15 1 21 -11 21 -12 0 -15 -6 -11 -22 5 -19 -2 -27 -37 -45 -31 -17
-37 -18 -22 -5 31 26 47 61 36 75 -6 7 -11 21 -13 31 -2 11 -6 18 -9 15 -3 -2
-18 8 -35 23 -16 14 -41 36 -55 48 -27 23 88 -50 130 -83z m360 -47 c0 -5 -4
-10 -10 -10 -5 0 -10 5 -10 10 0 6 5 10 10 10 6 0 10 -4 10 -10z m-55 -59 c27
-6 12 -7 -50 -4 -49 3 -124 0 -165 -5 -83 -12 -105 -9 -38 6 54 12 200 14 253
3z m-485 -228 c-1 -24 -2 -26 -11 -10 -5 9 -7 22 -4 27 10 17 15 11 15 -17z
m425 -3 c129 -12 159 -21 234 -66 52 -32 62 -34 142 -34 64 0 90 -4 99 -15 15
-18 5 -23 -60 -28 -41 -3 -40 -4 13 -5 63 -2 69 -11 32 -47 -21 -22 -33 -25
-99 -25 -54 0 -98 7 -153 25 -43 14 -116 30 -163 35 -47 4 -98 13 -113 19 -36
14 -40 14 -31 0 4 -7 1 -10 -7 -7 -8 3 -13 10 -12 16 1 5 -3 12 -11 15 -7 3
-39 -30 -79 -82 -77 -102 -190 -227 -220 -242 -25 -14 -149 -50 -154 -45 -10
10 336 448 385 486 19 15 35 20 57 16 16 -3 80 -10 140 -16z m346 -12 c12 -18
19 -30 14 -26 -4 4 -14 3 -22 -3 -8 -8 -13 -8 -13 -1 0 6 6 13 13 15 7 3 5 6
-5 6 -12 1 -18 -6 -18 -20 0 -17 5 -19 30 -16 19 4 34 0 42 -11 11 -14 10 -15
-12 -9 -14 4 -35 7 -47 7 -20 0 -23 5 -23 38 0 33 6 52 16 52 1 0 13 -15 25
-32z m-797 -10 c-5 -7 -7 -24 -5 -37 2 -15 -1 -21 -9 -16 -6 4 -9 14 -6 22 3
8 2 11 -3 8 -6 -3 -9 -14 -8 -25 1 -10 5 -16 11 -13 5 3 6 1 2 -6 -4 -6 -12
-9 -17 -6 -5 4 -9 0 -9 -8 0 -20 -23 -62 -35 -66 -5 -1 -9 -9 -7 -16 2 -10 -3
-13 -14 -8 -14 5 -16 3 -11 -11 4 -11 3 -15 -4 -11 -6 4 -9 1 -8 -6 5 -24 -12
-60 -23 -53 -8 5 -9 1 -5 -10 5 -11 3 -15 -5 -10 -7 5 -9 2 -5 -8 3 -9 0 -21
-6 -27 -6 -6 -7 -11 -1 -11 5 0 22 24 38 53 16 28 56 93 88 144 34 52 56 97
52 104 -5 8 -2 9 12 1 11 -6 22 -32 31 -72 l12 -63 -68 -91 c-37 -50 -87 -120
-111 -156 -23 -36 -55 -78 -71 -95 -54 -58 -79 -150 -104 -380 -9 -82 -23
-175 -32 -205 -10 -30 -16 -61 -15 -67 2 -7 -1 -13 -5 -13 -22 0 -152 598
-155 713 -1 15 -5 27 -9 27 -5 0 -6 14 -2 30 3 17 1 30 -4 30 -10 0 -13 23
-13 103 0 23 -4 35 -10 32 -6 -4 -10 5 -8 22 1 15 -4 45 -11 66 -7 21 -11 41
-8 43 3 3 14 -21 25 -53 11 -32 40 -101 64 -153 24 -52 68 -159 98 -237 30
-79 57 -143 60 -143 3 0 16 35 30 78 13 42 30 87 38 99 7 12 11 27 7 33 -3 5
-2 10 4 10 6 0 7 7 4 17 -4 9 -2 14 3 10 6 -3 22 19 37 49 15 29 23 54 18 54
-5 0 -17 -20 -27 -45 -9 -25 -19 -44 -21 -42 -7 8 38 117 48 117 6 0 8 4 4 9
-8 14 16 61 28 54 6 -4 8 0 5 9 -4 8 3 31 15 49 11 19 22 39 23 46 3 20 95
156 101 150 3 -3 1 -12 -3 -19z m1355 -119 c-5 -35 -14 -72 -19 -81 -5 -10 -7
-25 -3 -34 4 -11 2 -15 -4 -11 -6 4 -13 -5 -15 -23 -2 -16 -1 -27 4 -24 4 3 8
-2 8 -11 0 -10 -5 -13 -11 -9 -8 5 -10 -1 -5 -19 3 -15 1 -29 -5 -33 -6 -4 -8
-20 -4 -40 4 -23 2 -34 -6 -34 -7 0 -9 -10 -6 -30 4 -16 2 -32 -3 -35 -5 -3
-10 -16 -10 -28 1 -24 -1 -32 -36 -227 -32 -177 -138 -637 -176 -770 -17 -58
-31 -113 -30 -123 0 -9 -3 -15 -9 -12 -5 4 -9 2 -9 -4 0 -5 -3 -18 -6 -28 -5
-15 -4 -16 6 -3 10 13 11 13 7 -2 -3 -9 -9 -33 -13 -53 -4 -25 -11 -35 -20
-31 -8 3 -14 1 -14 -3 0 -5 5 -11 11 -13 7 -2 3 -36 -14 -103 -14 -55 -26 -93
-26 -85 -1 12 -3 12 -10 2 -7 -11 -9 -11 -14 2 -4 9 -1 15 6 13 7 -1 11 6 11
15 -1 10 2 15 7 12 5 -2 8 10 7 29 -1 18 7 45 17 61 13 20 15 30 7 37 -7 5
-10 6 -7 3 3 -4 1 -12 -5 -18 -12 -16 -60 -150 -60 -170 0 -10 5 -14 10 -11 6
3 10 1 10 -4 0 -6 -5 -11 -11 -11 -5 0 -7 -5 -4 -10 11 -17 25 -11 25 12 0 12
3 18 6 15 4 -4 1 -27 -6 -52 l-13 -45 -23 70 c-13 39 -69 240 -124 447 l-99
376 22 17 c59 47 115 226 103 333 -3 28 -8 99 -11 157 -8 140 -7 137 -70 224
l-55 77 22 84 22 83 71 5 c38 3 79 8 90 11 18 6 28 -8 79 -113 33 -66 63 -118
68 -115 4 3 5 -2 2 -10 -3 -9 -1 -16 6 -16 6 0 8 -5 5 -10 -4 -6 -2 -16 3 -23
5 -7 20 -43 32 -82 13 -38 26 -74 30 -78 4 -4 38 67 75 159 83 207 130 306
150 317 8 4 15 13 15 19 0 6 -7 5 -17 -3 -16 -12 -17 -12 -8 1 6 8 19 41 30
73 10 31 20 56 21 54 2 -2 -1 -32 -7 -68z m-1049 -9 c-8 -5 -13 -10 -10 -11 3
0 14 -2 25 -5 11 -2 33 1 48 6 19 6 26 6 21 -2 -4 -5 -1 -14 6 -18 9 -6 7 -10
-8 -14 -13 -4 -31 0 -47 10 -26 17 -26 17 -20 -7 10 -40 -91 -180 -144 -201
-59 -23 -116 -37 -101 -25 8 7 28 29 43 50 15 20 36 37 45 37 16 -1 16 -1 0
-13 -11 -9 -14 -18 -7 -28 7 -11 9 -11 9 4 0 9 4 17 10 17 5 0 6 -8 3 -17 -6
-14 -3 -14 19 3 18 13 22 20 12 22 -10 3 -11 8 -4 22 7 13 7 21 0 25 -6 4 -9
3 -8 -2 2 -4 0 -9 -4 -10 -23 -8 13 55 55 95 l35 34 4 -31 c3 -18 0 -28 -5
-24 -6 3 -7 1 -3 -6 11 -16 26 -3 19 16 -4 11 -3 14 5 9 17 -10 14 15 -3 38
-15 20 -12 36 8 36 7 0 6 -4 -3 -10z m168 -25 c2 -2 0 -5 -5 -8 -5 -3 -19 1
-33 9 l-25 14 30 -6 c17 -4 31 -8 33 -9z m65 -2 c-7 -2 -21 -2 -30 0 -10 3 -4
5 12 5 17 0 24 -2 18 -5z m37 -13 c-11 -7 -4 -10 26 -10 22 0 49 -7 60 -16 18
-15 18 -15 -6 -8 -14 4 -77 9 -140 13 -108 6 -112 6 -60 14 31 4 63 5 72 2 9
-4 19 -2 23 4 3 6 14 11 23 11 15 0 15 -2 2 -10z m230 -44 c8 -2 -13 -4 -47
-5 -35 0 -63 2 -63 7 0 7 76 5 110 -2z m134 -27 c10 -25 12 -39 4 -50 -8 -11
-9 -11 -4 4 3 9 1 17 -5 17 -12 0 -31 49 -23 62 8 12 10 9 28 -33z m-398 -77
c52 -38 160 -156 192 -211 15 -25 27 -63 29 -90 2 -32 0 -40 -6 -26 -5 11 -7
23 -5 26 2 4 -3 9 -11 13 -8 3 -15 11 -15 17 0 8 6 7 18 -2 15 -13 16 -12 3 3
-7 10 -17 16 -21 13 -3 -2 -24 13 -45 35 -38 39 -38 39 -110 37 -64 -2 -70 -1
-48 10 14 7 36 10 51 6 17 -4 23 -2 18 6 -10 15 9 14 26 -1 7 -7 19 -14 26
-16 7 -1 26 -17 43 -35 21 -22 27 -25 20 -10 -6 12 -31 38 -56 59 -37 30 -55
37 -97 41 -52 3 -158 -20 -158 -36 0 -4 -6 -8 -14 -8 -19 0 -176 -67 -176 -75
0 -4 11 -3 25 2 14 5 25 6 25 1 0 -14 -43 -21 -57 -10 -6 6 -17 8 -24 4 -6 -4
-34 -11 -63 -15 l-51 -8 46 -1 c25 0 49 -5 55 -11 6 -6 67 3 169 25 204 44
290 46 335 9 17 -15 37 -39 45 -53 l14 -28 -52 5 c-90 7 -316 -78 -471 -177
-28 -17 -47 -31 -44 -31 3 0 69 29 145 64 158 72 311 127 362 129 42 1 72 -33
97 -112 21 -65 23 -181 4 -226 -7 -16 -14 -37 -15 -45 -2 -23 -34 -77 -35 -60
0 13 -1 13 -10 0 -5 -8 -5 -17 0 -20 4 -3 -3 -18 -16 -33 -16 -19 -24 -23 -24
-13 0 9 5 16 11 16 6 0 8 9 4 20 -4 12 -2 20 5 20 6 0 8 10 5 23 -3 12 1 36 9
52 9 17 16 24 16 18 0 -7 4 -13 9 -13 4 0 6 11 3 25 -2 14 0 25 6 25 6 0 8
-10 6 -22 -3 -13 2 -7 11 12 21 43 16 146 -9 205 l-17 40 -32 -39 c-32 -40
-48 -83 -25 -70 7 4 0 -6 -17 -23 -17 -18 -36 -28 -44 -25 -9 4 -12 1 -7 -7
10 -15 -9 -37 -56 -67 -43 -27 -67 -29 -122 -10 -36 12 -37 14 -13 18 16 3 28
0 31 -8 6 -15 43 -18 71 -7 15 5 14 8 -6 19 -20 11 -21 13 -6 14 10 0 16 4 13
9 -4 5 4 7 16 3 14 -3 19 -1 14 6 -6 10 27 36 46 37 4 0 13 6 20 13 6 6 17 12
24 12 6 0 14 9 17 21 3 13 1 19 -6 16 -7 -3 -11 -10 -9 -16 1 -6 -1 -10 -5
-10 -20 3 -34 -2 -28 -11 3 -5 1 -10 -5 -10 -6 0 -44 -16 -84 -35 -41 -19
-104 -43 -141 -52 l-67 -16 37 -18 c21 -10 41 -16 45 -14 4 3 10 -1 13 -9 4
-10 18 -12 52 -8 46 5 47 4 35 -17 -13 -25 -95 -111 -106 -111 -4 0 1 9 10 19
10 11 13 22 8 25 -5 3 -15 -8 -23 -25 -14 -36 -72 -96 -101 -105 -13 -4 -17
-11 -13 -22 5 -14 4 -15 -6 -4 -7 6 -18 12 -23 12 -6 0 -5 -4 2 -8 10 -7 9
-14 -2 -38 -21 -44 -29 -87 -15 -78 7 4 10 2 8 -5 -3 -7 -9 -11 -14 -9 -17 6
-27 -59 -34 -239 l-7 -181 -47 -96 c-52 -109 -122 -187 -197 -222 -89 -42
-123 -55 -128 -49 -3 3 0 5 6 5 21 0 13 18 -10 24 -13 3 -38 19 -55 35 -18 16
-33 26 -33 20 0 -5 -5 -9 -11 -9 -6 0 -8 7 -5 16 6 15 -31 75 -63 102 -8 6
-12 12 -8 12 3 0 -7 23 -24 52 l-31 52 15 71 c9 38 23 124 32 190 9 66 38 233
65 370 27 138 59 330 70 428 22 196 33 252 58 281 25 28 85 52 228 90 71 19
172 53 224 77 106 47 195 78 226 78 12 1 39 -12 60 -27z m415 5 c-10 -9 -11
-8 -5 6 3 10 9 15 12 12 3 -3 0 -11 -7 -18z m29 -28 c0 -6 -4 -7 -10 -4 -5 3
-10 11 -10 16 0 6 5 7 10 4 6 -3 10 -11 10 -16z m14 -45 c3 -11 7 -28 11 -39
6 -18 6 -19 -5 -2 -12 19 -25 76 -15 66 3 -4 7 -15 9 -25z m-474 -74 c13 -8
13 -10 -2 -10 -9 0 -20 5 -23 10 -8 13 5 13 25 0z m45 0 c3 -5 -1 -10 -10 -10
-9 0 -13 5 -10 10 3 6 8 10 10 10 2 0 7 -4 10 -10z m-105 -30 c13 -11 19 -20
14 -20 -13 1 -61 40 -48 40 6 0 21 -9 34 -20z m37 4 c-3 -3 -12 -4 -19 -1 -8
3 -5 6 6 6 11 1 17 -2 13 -5z m-47 -25 c0 -7 -10 -9 -25 -7 -14 3 -25 1 -25
-4 0 -6 -11 -7 -26 -4 -15 4 -23 3 -20 -2 6 -9 -24 -22 -52 -22 -18 0 -9 25 9
26 34 2 40 4 35 12 -2 4 20 9 50 10 36 2 54 -1 54 -9z m-175 -39 c3 -5 1 -10
-4 -10 -6 0 -11 5 -11 10 0 6 2 10 4 10 3 0 8 -4 11 -10z m-88 -36 c-3 -3 -12
-4 -19 -1 -8 3 -5 6 6 6 11 1 17 -2 13 -5z m517 -213 c3 -4 -4 -17 -15 -27
-15 -13 -20 -14 -17 -4 3 12 19 38 25 40 1 0 4 -4 7 -9z m30 -35 c2 -18 -4
-33 -18 -44 -16 -13 -21 -27 -20 -57 1 -22 0 -30 -3 -17 -4 23 -5 23 -24 6
-24 -22 -24 -34 1 -34 11 0 20 -7 20 -15 0 -20 -27 -19 -38 2 -6 10 -16 14
-26 10 -10 -4 -16 -1 -16 8 0 8 6 15 14 15 7 0 16 9 19 21 3 12 12 19 23 17 9
-2 19 3 22 11 3 9 0 11 -8 6 -9 -6 -9 -3 0 14 6 12 16 18 22 15 7 -5 9 -2 5 9
-3 8 0 21 8 27 8 6 11 19 8 28 -3 9 -3 14 1 10 4 -3 9 -18 10 -32z m-9 -107
c-10 -21 -14 -25 -10 -9 4 14 9 36 13 50 4 16 7 19 9 9 2 -8 -3 -31 -12 -50z
m22 -11 c-3 -8 -6 -5 -6 6 -1 11 2 17 5 13 3 -3 4 -12 1 -19z m-257 -21 c11
-5 9 -6 -4 -4 -11 1 -21 9 -23 17 -3 10 -2 11 4 4 4 -6 15 -14 23 -17z m-120
-17 c0 -5 -4 -10 -9 -10 -6 0 -13 5 -16 10 -3 6 1 10 9 10 9 0 16 -4 16 -10z
m273 -23 c3 -8 -1 -14 -9 -14 -8 0 -14 6 -14 14 0 7 4 13 9 13 5 0 11 -6 14
-13z m29 -39 c-4 -28 -6 -30 -12 -13 -4 11 -3 26 2 33 15 17 15 16 10 -20z
m-22 -19 c0 -10 6 -19 13 -20 9 0 9 -2 0 -6 -9 -3 -10 -10 -3 -24 7 -12 7 -19
1 -19 -5 0 -12 15 -16 33 -4 17 -9 40 -12 51 -3 12 -1 16 6 12 6 -4 11 -16 11
-27z m-269 -142 c-6 -8 -8 -17 -5 -20 3 -3 -2 -63 -12 -134 l-18 -128 -8 55
c-5 30 -7 64 -5 75 3 12 5 6 7 -15 3 -30 4 -27 11 20 4 30 11 72 15 93 5 32 4
37 -12 37 -12 0 -15 -3 -8 -8 7 -4 8 -15 3 -27 -5 -14 -8 -16 -9 -5 -2 8 -2
18 -1 23 0 4 -3 7 -9 7 -5 0 -10 -5 -10 -11 0 -5 -5 -7 -11 -3 -7 4 5 16 27
29 45 27 61 31 45 12z m-84 -53 c8 -21 -27 -56 -45 -45 -10 6 -7 10 12 15 14
3 26 13 26 22 0 8 -4 12 -10 9 -5 -3 -10 -1 -10 4 0 17 20 13 27 -5z m20 -76
c-2 -13 -4 -3 -4 22 0 25 2 35 4 23 2 -13 2 -33 0 -45z m20 10 c-3 -7 -5 -2
-5 12 0 14 2 19 5 13 2 -7 2 -19 0 -25z m-42 3 c-3 -6 -11 -11 -16 -11 -5 0
-4 6 3 14 14 16 24 13 13 -3z m-42 -8 c-7 -2 -19 -2 -25 0 -7 3 -2 5 12 5 14
0 19 -2 13 -5z m67 -76 c0 -5 -4 -5 -10 -2 -5 3 -10 14 -10 23 0 15 2 15 10 2
5 -8 10 -19 10 -23z m7 -54 c-3 -10 -5 -4 -5 12 0 17 2 24 5 18 2 -7 2 -21 0
-30z m-107 -37 c0 -16 -2 -18 -9 -7 -7 11 -12 7 -20 -20 -9 -28 -10 -29 -5 -4
3 17 6 40 6 53 0 18 3 20 14 11 8 -6 14 -21 14 -33z m120 -11 c0 -33 -23 -165
-29 -165 -3 0 -6 26 -7 58 -1 42 1 51 7 32 6 -17 7 -10 4 25 -3 39 -2 44 5 25
9 -23 9 -23 6 8 -1 17 1 32 6 32 4 0 8 -7 8 -15z m-133 -37 c-3 -8 -6 -5 -6 6
-1 11 2 17 5 13 3 -3 4 -12 1 -19z m-8 -153 c6 76 18 93 17 24 -1 -37 -4 -65
-8 -62 -5 2 -8 -2 -8 -9 0 -9 -3 -9 -10 2 -5 8 -9 51 -8 95 l2 80 6 -85 c4
-51 7 -69 9 -45z m8 103 c-3 -8 -6 -5 -6 6 -1 11 2 17 5 13 3 -3 4 -12 1 -19z
m100 -120 c-3 -7 -5 -2 -5 12 0 14 2 19 5 13 2 -7 2 -19 0 -25z m-49 -33 c8
11 42 16 42 6 -1 -17 -34 -100 -62 -150 -35 -64 -170 -255 -226 -319 l-37 -43
-19 22 c-15 18 -15 21 -2 16 19 -8 34 18 31 53 -1 18 10 35 42 64 32 28 42 43
38 57 -4 11 2 27 14 41 16 17 21 18 21 6 0 -9 -7 -21 -15 -28 -8 -7 -12 -17
-8 -23 4 -6 12 -3 20 9 13 17 14 17 8 -11 -6 -29 -6 -29 9 -11 9 11 17 31 17
45 1 19 3 21 6 8 5 -18 5 -18 19 0 19 25 17 32 -6 28 -13 -2 -20 2 -20 11 0
17 20 19 20 2 1 -7 7 -2 16 12 l15 25 -6 -25 -6 -25 20 25 c21 25 28 45 13 36
-10 -6 -47 53 -38 61 3 3 10 -5 15 -18 l10 -24 0 27 c1 15 -3 30 -9 33 -5 3
-10 16 -9 28 0 18 4 15 16 -12 8 -19 13 -45 10 -57 -3 -17 1 -22 15 -21 21 1
23 8 6 25 -9 9 -8 12 4 12 22 0 32 18 30 55 -1 24 1 26 7 10 7 -17 8 -17 13 8
4 23 2 27 -17 27 -13 0 -26 -7 -29 -16 -3 -8 -10 -12 -16 -9 -6 4 -3 15 7 30
12 15 20 19 26 11 4 -7 10 -8 15 -1z m-27 -63 c7 10 9 9 9 -4 0 -9 -4 -20 -10
-23 -5 -3 -10 -1 -10 5 0 6 -4 8 -10 5 -5 -3 -10 -4 -10 -1 0 2 -3 13 -7 23
-7 17 -6 17 12 0 14 -15 20 -16 26 -5z m-70 -118 c-7 -14 -10 -15 -11 -4 0 27
-23 -8 -30 -47 l-6 -38 -6 34 c-4 26 0 39 18 58 13 14 21 31 17 37 -3 6 2 4
12 -5 13 -13 15 -21 6 -35z m-575 -12 c8 -7 12 -17 9 -22 -5 -9 22 -80 31 -80
3 0 2 10 -1 23 -7 22 -7 22 8 2 9 -11 11 -21 6 -23 -5 -2 -9 -8 -9 -13 0 -6 5
-7 10 -4 7 4 9 -2 5 -17 -4 -16 -1 -29 9 -37 9 -7 14 -17 11 -21 -3 -5 -1 -11
4 -14 13 -8 7 22 -7 36 -16 16 -16 41 0 32 8 -5 9 -2 5 10 -4 11 -3 15 4 11 6
-4 8 -13 5 -21 -6 -15 13 -54 26 -54 4 0 5 8 1 18 -5 14 -3 14 10 -3 8 -10 12
-26 9 -35 -5 -12 -3 -13 9 -4 8 6 22 9 32 5 17 -6 17 -8 -4 -26 l-22 -20 7 25
c7 23 6 22 -12 -5 -11 -16 -16 -34 -12 -40 4 -5 11 -21 14 -35 6 -21 5 -22 -4
-8 -6 10 -11 21 -12 25 -1 5 -9 16 -18 26 -20 21 -86 149 -82 160 1 4 -2 7 -8
7 -5 0 -10 9 -10 20 0 11 -4 20 -8 20 -10 0 -32 70 -31 96 1 18 2 18 6 0 3
-11 11 -26 19 -34z m464 -112 c0 -5 -5 -10 -11 -10 -5 0 -7 5 -4 10 3 6 8 10
11 10 2 0 4 -4 4 -10z m-30 -36 c-8 -8 -23 -20 -34 -25 -13 -6 -10 0 9 15 34
29 43 33 25 10z m-120 -74 c0 -5 -10 -10 -22 -9 -22 0 -22 1 -3 9 11 5 21 9
23 9 1 1 2 -3 2 -9z m-6 -30 c-3 -2 -35 -5 -72 -6 -50 -1 -58 1 -32 6 37 8
111 8 104 0z m64 -68 c4 -13 -76 -102 -92 -102 -6 1 0 10 14 21 14 12 25 29
25 38 1 9 7 15 14 13 8 -2 11 3 8 12 -4 10 -1 13 9 9 16 -6 20 13 4 20 -6 3
-5 4 2 3 6 -1 13 -7 16 -14z m-162 -67 c-6 19 -6 19 8 1 14 -18 16 -17 41 9
31 34 43 27 19 -10 -13 -20 -24 -25 -41 -22 -13 2 -23 1 -23 -3 0 -8 39 -23
53 -21 12 2 8 -5 -15 -25 -22 -19 -22 -19 -8 0 14 18 13 19 -2 13 -13 -4 -24
7 -48 46 -29 49 -29 50 -4 22 20 -22 25 -25 20 -10z m38 13 c-3 -5 -12 -4 -20
3 -19 16 -18 18 6 12 11 -3 17 -9 14 -15z"/>
<path d="M3270 4960 c0 -6 7 -10 15 -10 8 0 15 2 15 4 0 2 -7 6 -15 10 -8 3
-15 1 -15 -4z"/>
<path d="M2348 4163 c7 -3 16 -2 19 1 4 3 -2 6 -13 5 -11 0 -14 -3 -6 -6z"/>
<path d="M2286 4143 c-6 -14 -5 -15 5 -6 7 7 10 15 7 18 -3 3 -9 -2 -12 -12z"/>
<path d="M2016 3748 l-17 -33 20 24 c18 20 27 41 18 41 -1 0 -11 -15 -21 -32z"/>
<path d="M2450 3706 c0 -2 7 -7 16 -10 8 -3 12 -2 9 4 -6 10 -25 14 -25 6z"/>
<path d="M2348 3661 c-12 -14 -13 -21 -5 -25 7 -2 2 -5 -9 -5 -22 -1 -38 -23
-27 -35 12 -11 23 -6 23 11 0 9 3 14 6 10 4 -3 2 -20 -4 -36 -6 -17 -9 -31 -8
-31 2 0 16 16 31 36 26 34 27 38 11 49 -11 9 -13 14 -5 17 7 2 10 10 8 16 -3
8 -10 6 -21 -7z m22 -35 c0 -3 -4 -8 -10 -11 -5 -3 -10 -1 -10 4 0 6 5 11 10
11 6 0 10 -2 10 -4z"/>
<path d="M2224 3504 c3 -8 2 -12 -3 -9 -5 3 -12 1 -15 -3 -3 -5 3 -9 14 -8 11
0 20 4 20 9 0 4 0 12 0 17 0 6 -5 10 -11 10 -6 0 -8 -7 -5 -16z"/>
<path d="M2650 2939 c-12 -9 -12 -10 4 -5 16 6 17 4 6 -9 -7 -8 -21 -15 -32
-15 -11 0 -16 -5 -13 -10 8 -13 68 19 67 35 -1 14 -15 16 -32 4z"/>
<path d="M2830 2823 c0 -6 -8 -10 -17 -9 -12 0 -19 -7 -21 -21 -2 -16 1 -21
10 -18 17 7 41 45 34 53 -3 3 -6 1 -6 -5z"/>
<path d="M2519 2812 c-19 -3 -31 -36 -22 -59 4 -11 10 -10 30 9 14 13 29 31
34 40 9 17 1 19 -42 10z m16 -22 c-3 -5 -11 -10 -16 -10 -6 0 -7 5 -4 10 3 6
11 10 16 10 6 0 7 -4 4 -10z"/>
<path d="M2176 1781 c-4 -6 -4 -17 0 -23 5 -10 4 -10 -6 -1 -10 9 -18 6 -37
-13 -13 -13 -27 -24 -31 -24 -4 0 -8 -9 -8 -19 0 -15 3 -17 13 -9 7 6 10 15 6
22 -4 7 -2 7 7 -1 10 -9 7 -20 -19 -51 -17 -22 -31 -43 -31 -47 0 -4 10 5 22
21 13 16 31 38 41 49 49 52 70 86 60 96 -8 8 -13 7 -17 0z m-19 -55 c-6 -8
-15 -12 -19 -9 -4 2 -2 10 5 17 6 8 15 12 19 9 4 -2 2 -10 -5 -17z"/>
<path d="M1785 1700 c1 -19 24 -58 26 -45 7 43 4 61 -11 61 -9 0 -16 -7 -15
-16z"/>
</g>
</svg>
